<svg xmlns="http://www.w3.org/2000/svg" viewBox="0 0 272 165">
  <title>logo bianco</title>
  <g id="Livello_2" data-name="Livello 2">
    <g id="Livello_1-2" data-name="Livello 1">
      <g>
        <path d="M124.47,56.35a1.82,1.82,0,0,0,.57.73,1.74,1.74,0,0,0,1.12.32,1.71,1.71,0,0,0,1.11-.32,1.82,1.82,0,0,0,.57-.73,2.65,2.65,0,0,0,.22-.88c0-.3,0-.55,0-.75V40.26c0-.24,0-.52,0-.82a2.65,2.65,0,0,0-.22-.88,1.67,1.67,0,0,0-.57-.7,1.91,1.91,0,0,0-1.11-.27,2,2,0,0,0-1.12.27,1.67,1.67,0,0,0-.57.7,2.92,2.92,0,0,0-.22.88c0,.3,0,.58,0,.82V54.72q0,.3,0,.75A2.92,2.92,0,0,0,124.47,56.35Z"/>
        <path d="M127.84,105.58a1.59,1.59,0,0,0-.57-.69,1.84,1.84,0,0,0-1.11-.28,1.87,1.87,0,0,0-1.12.28,1.59,1.59,0,0,0-.57.69,3,3,0,0,0-.22.88c0,.31,0,.58,0,.83v14.46q0,.28,0,.75a3,3,0,0,0,.22.88,1.89,1.89,0,0,0,.57.73,1.74,1.74,0,0,0,1.12.31,1.71,1.71,0,0,0,1.11-.31,1.89,1.89,0,0,0,.57-.73,2.71,2.71,0,0,0,.22-.88c0-.31,0-.56,0-.75V107.29c0-.25,0-.52,0-.83A2.71,2.71,0,0,0,127.84,105.58Z"/>
        <path d="M0,0V165H272V0ZM150,66.38h7.36l5.42,17.24h.07V66.38h6.52V95.63h-7.32l-5.46-18.09h-.07V95.63H150ZM138.61,32.86h5.63v5.35a4.36,4.36,0,0,1-.23,1.45,6.09,6.09,0,0,1-.63,1.28,11.46,11.46,0,0,1-.84,1.17q-.45.57-.93,1.08h-3c.56-.59,1.11-1.19,1.65-1.81a4.74,4.74,0,0,0,1.06-2.22h-2.74Zm8.2,33.52V95.63h-6.74V66.38ZM117.48,40.85a9.65,9.65,0,0,1,.66-3.72A7.3,7.3,0,0,1,120,34.48a7.22,7.22,0,0,1,2.75-1.58,12,12,0,0,1,6.92,0,7.25,7.25,0,0,1,2.74,1.58,7.32,7.32,0,0,1,1.82,2.65,9.85,9.85,0,0,1,.65,3.72V54.14a9.79,9.79,0,0,1-.6,3.51,7.32,7.32,0,0,1-1.74,2.68A7.75,7.75,0,0,1,129.76,62a10.37,10.37,0,0,1-3.6.59,10.59,10.59,0,0,1-3.63-.59,7.57,7.57,0,0,1-2.73-1.68,7.67,7.67,0,0,1-1.72-2.68,9.79,9.79,0,0,1-.6-3.51ZM67.39,21h8.53V77H67.39ZM39.5,56.34a6.48,6.48,0,0,1,6.76-6.76H51V58H48v62H39.5Zm-14,65.81H65v8.47H25.53ZM74,143A6.81,6.81,0,0,1,69,144.87H46.26a6.48,6.48,0,0,1-6.76-6.76v-5.42H48V134h0v2.42H67.44l0-46h8.47v47.67A6.46,6.46,0,0,1,74,143Zm15.9-19.12A6.64,6.64,0,0,1,88,128.73a6.5,6.5,0,0,1-4.84,1.89H78.34v-8.47H81.4V87.87H60.15A6.5,6.5,0,0,1,55.31,86a6.66,6.66,0,0,1-1.86-4.87v-39a6.67,6.67,0,0,1,1.86-4.88,6.5,6.5,0,0,1,4.84-1.88l4.77-.08L65,43.57l-3,.07-.07,15.55V79.3H81.4V43.64l-3.06-.07V35.25l4.83.08A6.53,6.53,0,0,1,88,37.21a6.66,6.66,0,0,1,1.85,4.88Zm15.48,11h-3V31h3Zm29.49-13.67a9.81,9.81,0,0,1-.6,3.52,7.19,7.19,0,0,1-1.74,2.67,7.75,7.75,0,0,1-2.73,1.68,10.37,10.37,0,0,1-3.6.59,10.59,10.59,0,0,1-3.63-.59,7.2,7.2,0,0,1-4.45-4.35,9.81,9.81,0,0,1-.6-3.52V107.87a9.73,9.73,0,0,1,.66-3.72A7.39,7.39,0,0,1,120,101.5a7.2,7.2,0,0,1,2.75-1.57,11.77,11.77,0,0,1,6.92,0,7.23,7.23,0,0,1,2.74,1.57,7.41,7.41,0,0,1,1.82,2.65,9.92,9.92,0,0,1,.65,3.72Zm2-25.53h-7.32l-5.46-18.09H124V95.63h-6.52V66.38h7.36l5.42,17.24h.07V66.38h6.52Zm20.36,33.51h-7.33l-5.45-18.08h-.08v18.08h-6.51V99.89h7.36l5.42,17.24h.07V99.89h6.52Zm18.3,0h-15.3V99.89h15v5.64H167v5.82h7.21V117H167v6.52h8.56Zm12.2-33.51H172.4V66.38h15V72h-8.24v5.82h7.21v5.64h-7.21V90h8.57ZM205.06,72H200.7V95.63H194V72h-4.36V66.38h15.45ZM218,83.59v12h-6.74V84.06l-5.49-17.68h7l1.87,9.88h.07l2-9.88h6.85Z"/>
      </g>
    </g>
  </g>
</svg>
