<svg xmlns="http://www.w3.org/2000/svg" viewBox="0 0 32.84 32.67">
  <defs>
    <style>
      .cls-1 {
        fill: #fff;
      }
    </style>
  </defs>
  <title>search</title>
  <g id="Livello_2" data-name="Livello 2">
    <g id="Livello_1-2" data-name="Livello 1">
      <g>
        <path class="cls-1" d="M19.15,27.38A13.69,13.69,0,1,1,32.84,13.69,13.7,13.7,0,0,1,19.15,27.38Zm0-24.45A10.76,10.76,0,1,0,29.91,13.69,10.77,10.77,0,0,0,19.15,2.93Z"/>
        <path class="cls-1" d="M2.35,32.67A2.37,2.37,0,0,1,.69,32a2.34,2.34,0,0,1,0-3.32l7.38-7.39a2.35,2.35,0,0,1,3.32,3.32L4,32A2.33,2.33,0,0,1,2.35,32.67Z"/>
      </g>
    </g>
  </g>
</svg>
