<svg xmlns="http://www.w3.org/2000/svg" viewBox="0 0 324.85 202.99"><defs><style>.cls-1{font-size:60px;font-family:HelveticaInserat;}.cls-1,.cls-3{fill:#1d1d1b;}.cls-2{fill:none;stroke:#1d1d1b;stroke-miterlimit:10;stroke-width:2px;}</style></defs><title>logo 0&amp;apos;91</title><g id="Livello_2" data-name="Livello 2"><g id="Livello_1-2" data-name="Livello 1"><text class="cls-1" transform="translate(148.22 72.3)">O’<tspan x="0" y="50">NINETY</tspan><tspan x="0" y="100">ONE</tspan></text><line class="cls-2" x1="128.32" y1="186.53" x2="128.32" y2="16.45"/><rect class="cls-3" x="68.6" width="13.97" height="91.77"/><rect class="cls-3" y="165.76" width="64.62" height="13.87"/><path class="cls-3" d="M102.38,26.57a10.64,10.64,0,0,0-7.93-3.09l-7.91-.12V37l5,.12V95.53H59.62V62.59l.12-25.48L64.67,37l-.11-13.63-7.83.12a10.66,10.66,0,0,0-7.94,3.09,10.88,10.88,0,0,0-3,8v64a10.88,10.88,0,0,0,3,8,10.66,10.66,0,0,0,7.94,3.09H91.55v56.18h-5v13.87h7.91a10.64,10.64,0,0,0,7.93-3.09,10.91,10.91,0,0,0,3-8v-134A10.88,10.88,0,0,0,102.38,26.57Z"/><path class="cls-3" d="M36.77,60.7h5V46.83H34A10.59,10.59,0,0,0,22.9,57.91V162.36H36.77Z"/><path class="cls-3" d="M68.65,113.78l0,75.33H36.77v-4h0V183H22.9v8.88A10.6,10.6,0,0,0,34,203h37.3a11.18,11.18,0,0,0,8.09-3.1,10.64,10.64,0,0,0,3.19-8l0-78.13Z"/></g></g></svg>