<svg xmlns="http://www.w3.org/2000/svg" viewBox="0 0 134.16 258.32">
  <title>logotipo</title>
  <g id="Livello_2" data-name="Livello 2">
    <g id="Livello_1-2" data-name="Livello 1">
      <g>
        <rect x="87.3" width="17.78" height="116.78"/>
        <rect y="210.95" width="82.23" height="17.65"/>
        <path d="M130.29,33.81a13.56,13.56,0,0,0-10.1-3.94l-10.06-.15V47.07l6.38.15v74.36H75.87V79.65L76,47.22l6.28-.15-.15-17.35-10,.15a13.58,13.58,0,0,0-10.1,3.94A13.89,13.89,0,0,0,58.22,44v81.39a13.87,13.87,0,0,0,3.87,10.16,13.54,13.54,0,0,0,10.1,3.94h44.32V211h-6.38V228.6h10.06a13.52,13.52,0,0,0,10.1-3.94,13.87,13.87,0,0,0,3.87-10.16V44A13.89,13.89,0,0,0,130.29,33.81Z"/>
        <path d="M46.79,77.25h6.36V59.6H43.23A13.47,13.47,0,0,0,29.14,73.69V206.62H46.79Z"/>
        <path d="M87.37,144.8l0,95.87H46.79v-5h0v-2.71H29.14v11.31a13.48,13.48,0,0,0,14.09,14.09H90.7A14.17,14.17,0,0,0,101,254.38a13.5,13.5,0,0,0,4.06-10.15l0-99.43Z"/>
      </g>
    </g>
  </g>
</svg>
